HIERARCHY
ROOT Hips
{
 OFFSET 0.000000 0.000000 0.000000
 CHANNELS 6 Xposition Yposition Zposition Yrotation Xrotation Zrotation
 JOINT Chest
 {
  OFFSET 0.000000 9.630565 -1.070063
  CHANNELS 3 Yrotation Xrotation Zrotation
  JOINT Chest2
  {
   OFFSET 0.000000 10.515092 0.000000
   CHANNELS 3 Yrotation Xrotation Zrotation
   JOINT Chest3
   {
    OFFSET 0.000000 9.604626 -0.030425
    CHANNELS 3 Yrotation Xrotation Zrotation
    JOINT Chest4
    {
     OFFSET 0.000000 9.593896 -0.030455
     CHANNELS 3 Yrotation Xrotation Zrotation
     JOINT Neck
     {
      OFFSET 0.000000 13.488791 0.000000
      CHANNELS 3 Yrotation Xrotation Zrotation
      JOINT Head
      {
       OFFSET 0.000000 10.704499 -0.075716
       CHANNELS 3 Yrotation Xrotation Zrotation
       End Site
       {
        OFFSET 0.000000 21.416259 -0.029166
       }
      }
     }
     JOINT RightCollar
     {
      OFFSET -3.054452 7.579305 0.000000
      CHANNELS 3 Yrotation Xrotation Zrotation
      JOINT RightShoulder
      {
       OFFSET -14.776674 0.000000 0.000000
       CHANNELS 3 Yrotation Xrotation Zrotation
       JOINT RightElbow
       {
        OFFSET -30.982767 0.000000 0.000000
        CHANNELS 3 Yrotation Xrotation Zrotation
        JOINT RightWrist
        {
         OFFSET -25.330466 0.000000 0.000000
         CHANNELS 3 Yrotation Xrotation Zrotation
         JOINT RightFinger0
         {
          OFFSET -2.833226 0.000000 2.791865
          CHANNELS 3 Yrotation Xrotation Zrotation
          JOINT RightFinger01
          {
           OFFSET -3.663730 0.000000 0.000000
           CHANNELS 3 Yrotation Xrotation Zrotation
           JOINT RightFinger02
           {
            OFFSET -3.215815 0.000000 0.000000
            CHANNELS 3 Yrotation Xrotation Zrotation
            End Site
            {
             OFFSET -3.215815 0.000000 0.000000
            }
           }
          }
         }
         JOINT RightFinger1
         {
          OFFSET -9.466533 0.000000 1.251169
          CHANNELS 3 Yrotation Xrotation Zrotation
          JOINT RightFinger11
          {
           OFFSET -4.280860 0.000000 0.000000
           CHANNELS 3 Yrotation Xrotation Zrotation
           JOINT RightFinger12
           {
            OFFSET -2.336894 0.000000 0.000000
            CHANNELS 3 Yrotation Xrotation Zrotation
            End Site
            {
             OFFSET -2.099069 0.000000 0.000000
            }
           }
          }
         }
         JOINT RightFinger2
         {
          OFFSET -9.482001 0.000000 0.000000
          CHANNELS 3 Yrotation Xrotation Zrotation
          JOINT RightFinger21
          {
           OFFSET -4.684129 0.000000 0.000000
           CHANNELS 3 Yrotation Xrotation Zrotation
           JOINT RightFinger22
           {
            OFFSET -2.771185 0.000000 0.000000
            CHANNELS 3 Yrotation Xrotation Zrotation
            End Site
            {
             OFFSET -2.202471 0.000000 0.000000
            }
           }
          }
         }
         JOINT RightFinger3
         {
          OFFSET -9.119393 0.000000 -1.261509
          CHANNELS 3 Yrotation Xrotation Zrotation
          JOINT RightFinger31
          {
           OFFSET -4.446304 0.000000 0.000000
           CHANNELS 3 Yrotation Xrotation Zrotation
           JOINT RightFinger32
           {
            OFFSET -2.636761 0.000000 0.000000
            CHANNELS 3 Yrotation Xrotation Zrotation
            End Site
            {
             OFFSET -2.223152 0.000000 0.000000
            }
           }
          }
         }
         JOINT RightFinger4
         {
          OFFSET -8.375151 0.000000 -2.254173
          CHANNELS 3 Yrotation Xrotation Zrotation
          JOINT RightFinger41
          {
           OFFSET -3.712147 0.000000 0.000000
           CHANNELS 3 Yrotation Xrotation Zrotation
           JOINT RightFinger42
           {
            OFFSET -2.016347 0.000000 0.000000
            CHANNELS 3 Yrotation Xrotation Zrotation
            End Site
            {
             OFFSET -2.140430 0.000000 0.000000
            }
           }
          }
         }
        }
       }
      }
     }
     JOINT LeftCollar
     {
      OFFSET 3.054452 7.579305 0.000000
      CHANNELS 3 Yrotation Xrotation Zrotation
      JOINT LeftShoulder
      {
       OFFSET 14.776674 0.000000 0.000000
       CHANNELS 3 Yrotation Xrotation Zrotation
       JOINT LeftElbow
       {
        OFFSET 30.982767 0.000000 0.000000
        CHANNELS 3 Yrotation Xrotation Zrotation
        JOINT LeftWrist
        {
         OFFSET 25.330466 0.000000 0.000000
         CHANNELS 3 Yrotation Xrotation Zrotation
         JOINT LeftFinger0
         {
          OFFSET 2.833226 0.000000 2.791865
          CHANNELS 3 Yrotation Xrotation Zrotation
          JOINT LeftFinger01
          {
           OFFSET 3.663730 0.000000 0.000000
           CHANNELS 3 Yrotation Xrotation Zrotation
           JOINT LeftFinger02
           {
            OFFSET 3.215815 0.000000 0.000000
            CHANNELS 3 Yrotation Xrotation Zrotation
            End Site
            {
             OFFSET 3.215815 0.000000 0.000000
            }
           }
          }
         }
         JOINT LeftFinger1
         {
          OFFSET 9.466533 0.000000 1.251169
          CHANNELS 3 Yrotation Xrotation Zrotation
          JOINT LeftFinger11
          {
           OFFSET 4.280860 0.000000 0.000000
           CHANNELS 3 Yrotation Xrotation Zrotation
           JOINT LeftFinger12
           {
            OFFSET 2.336894 0.000000 0.000000
            CHANNELS 3 Yrotation Xrotation Zrotation
            End Site
            {
             OFFSET 2.099069 0.000000 0.000000
            }
           }
          }
         }
         JOINT LeftFinger2
         {
          OFFSET 9.482001 0.000000 0.000000
          CHANNELS 3 Yrotation Xrotation Zrotation
          JOINT LeftFinger21
          {
           OFFSET 4.684129 0.000000 0.000000
           CHANNELS 3 Yrotation Xrotation Zrotation
           JOINT LeftFinger22
           {
            OFFSET 2.771185 0.000000 0.000000
            CHANNELS 3 Yrotation Xrotation Zrotation
            End Site
            {
             OFFSET 2.202471 0.000000 0.000000
            }
           }
          }
         }
         JOINT LeftFinger3
         {
          OFFSET 9.119393 0.000000 -1.261509
          CHANNELS 3 Yrotation Xrotation Zrotation
          JOINT LeftFinger31
          {
           OFFSET 4.446304 0.000000 0.000000
           CHANNELS 3 Yrotation Xrotation Zrotation
           JOINT LeftFinger32
           {
            OFFSET 2.636761 0.000000 0.000000
            CHANNELS 3 Yrotation Xrotation Zrotation
            End Site
            {
             OFFSET 2.223152 0.000000 0.000000
            }
           }
          }
         }
         JOINT LeftFinger4
         {
          OFFSET 8.375151 0.000000 -2.254173
          CHANNELS 3 Yrotation Xrotation Zrotation
          JOINT LeftFinger41
          {
           OFFSET 3.712147 0.000000 0.000000
           CHANNELS 3 Yrotation Xrotation Zrotation
           JOINT LeftFinger42
           {
            OFFSET 2.016347 0.000000 0.000000
            CHANNELS 3 Yrotation Xrotation Zrotation
            End Site
            {
             OFFSET 2.140430 0.000000 0.000000
            }
           }
          }
         }
        }
       }
      }
     }
    }
   }
  }
 }
 JOINT RightHip
 {
  OFFSET -8.040601 0.075541 -0.008393
  CHANNELS 3 Yrotation Xrotation Zrotation
  JOINT RightKnee
  {
   OFFSET 0.000000 -40.488015 -0.007192
   CHANNELS 3 Yrotation Xrotation Zrotation
   JOINT RightAnkle
   {
    OFFSET 0.000000 -39.536317 -0.012122
    CHANNELS 3 Yrotation Xrotation Zrotation
    JOINT RightToe
    {
     OFFSET 0.000000 -7.815405 17.988983
     CHANNELS 3 Yrotation Xrotation Zrotation
     End Site
     {
      OFFSET 0.000000 -2.689051 7.496003
     }
    }
   }
  }
 }
 JOINT LeftHip
 {
  OFFSET 8.040601 0.073397 -0.008155
  CHANNELS 3 Yrotation Xrotation Zrotation
  JOINT LeftKnee
  {
   OFFSET 0.000000 -40.488015 -0.007192
   CHANNELS 3 Yrotation Xrotation Zrotation
   JOINT LeftAnkle
   {
    OFFSET 0.000000 -39.536317 -0.012122
    CHANNELS 3 Yrotation Xrotation Zrotation
    JOINT LeftToe
    {
     OFFSET 0.000000 -7.815405 17.988983
     CHANNELS 3 Yrotation Xrotation Zrotation
     End Site
     {
      OFFSET 0.000000 -2.689051 7.496003
     }
    }
   }
  }
 }
}
MOTION
Frames: 6
Frame Time: 0.016667
0.000000 125.000000 0.000000 -165.351434 5.585271 0.221358 0.423158 -4.197808 -2.065820 0.262830 -7.693157 -0.921487 0.260695 -1.872785 -0.894795 0.124462 4.431311 -0.672029 1.923446 17.603642 4.547934 2.013279 -3.326325 7.738329 -2.986486 -3.102555 8.263815 -11.550398 -34.068313 56.757646 97.589380 -47.432238 41.231119 -21.881268 -48.925360 38.423021 58.442074 60.506687 42.274685 -0.005673 0.001080 16.255498 -0.005550 -0.001494 9.079542 -10.555162 4.939194 45.375268 1.021113 1.713573 20.919842 1.295885 1.722393 17.715592 -8.960881 2.260712 53.275730 0.006309 0.022694 7.846805 0.006038 0.022872 4.993414 -8.050057 2.328728 49.968673 0.127955 0.392535 9.140868 0.122457 0.396542 5.816467 -7.556040 -0.732687 42.356516 -0.682064 -1.626842 11.600796 -0.653249 -1.654028 7.372680 0.709789 0.297471 -6.326787 -5.529228 5.977448 -78.316316 -10.035079 6.398017 -2.831564 -3.800976 14.278645 5.656003 -101.989230 66.962286 -69.701235 0.035899 0.005013 -26.858177 0.035377 -0.007261 -29.118109 5.540382 4.681859 -66.300983 -3.758005 2.062799 -40.394610 -4.861932 1.841121 -29.851895 5.685716 2.883292 -67.672948 -2.317372 -0.131334 -66.088798 -2.652921 0.096352 -40.556161 5.175049 3.461091 -62.038936 -2.971039 -0.555668 -72.431319 -3.455605 -0.051944 -45.065130 4.965078 2.625297 -42.689133 -2.915491 -0.820907 -76.834714 -3.450360 -0.116892 -46.240703 -0.000000 0.000000 -0.000000 -0.000000 0.000000 -0.000000 -0.000000 0.000000 -0.000000 -0.000000 0.000000 -0.000000 -0.000000 0.000000 -0.000000 -0.000000 0.000000 -0.000000 -0.000000 0.000000 -0.000000 -0.000000 0.000000 -0.000000
0.000000 125.000000 0.000000 -165.408069 5.557256 0.225365 0.432366 -4.195239 -2.066927 0.266963 -7.692056 -0.921900 0.264794 -1.871686 -0.894788 0.127539 4.432129 -0.672013 1.822307 17.695731 4.566062 1.825229 -3.150115 7.804244 -2.871875 -3.035781 8.262031 -11.138737 -34.759587 57.569549 98.494842 -46.813953 39.343998 -21.477238 -49.339456 37.736250 58.550812 60.478308 42.431520 -0.005858 0.001191 16.201173 -0.005761 -0.001594 8.972920 -10.548516 4.766128 44.695296 1.031114 1.682387 21.423075 1.313780 1.690805 18.171871 -8.830632 2.130994 52.877729 0.023443 0.082577 8.003395 0.022428 0.083209 5.093064 -7.906202 2.048647 49.908407 0.116966 0.357067 9.183592 0.111936 0.360753 5.843737 -7.559757 -0.748867 42.394131 -0.687405 -1.638556 11.607726 -0.658370 -1.666003 7.376933 0.677168 0.279467 -6.332402 -5.649455 5.894252 -78.257993 -10.045408 6.344347 -2.892859 -3.782711 14.316533 5.663296 -101.989230 66.962286 -69.701235 0.035899 0.005013 -26.858177 0.035377 -0.007261 -29.118109 5.540382 4.681859 -66.300983 -3.758005 2.062799 -40.394610 -4.861932 1.841121 -29.851895 5.685716 2.883292 -67.672948 -2.317372 -0.131334 -66.088798 -2.652921 0.096352 -40.556161 5.175049 3.461091 -62.038936 -2.971039 -0.555668 -72.431319 -3.455605 -0.051944 -45.065130 4.965078 2.625297 -42.689133 -2.915491 -0.820907 -76.834714 -3.450360 -0.116892 -46.240703 -0.000000 -0.000000 0.000000 -0.000000 -0.000000 0.000000 -0.000000 -0.000000 0.000000 -0.000000 -0.000000 0.000000 -0.000000 -0.000000 0.000000 -0.000000 -0.000000 0.000000 -0.000000 -0.000000 0.000000 -0.000000 -0.000000 0.000000
0.000000 125.000000 0.000000 -165.445619 5.526808 0.227784 0.446199 -4.192653 -2.071335 0.273267 -7.690970 -0.923750 0.271044 -1.870603 -0.895998 0.132134 4.432931 -0.672904 1.722543 17.824266 4.569970 1.646461 -2.906585 7.842578 -2.754781 -2.952844 8.241229 -10.653486 -35.216565 58.226313 99.057330 -46.083261 37.730524 -21.012184 -49.737422 36.947174 58.807838 60.620275 43.022885 -0.004889 0.000947 15.724639 -0.004781 -0.001337 8.059221 -10.536265 4.670033 44.043117 1.060361 1.678585 21.950952 1.356008 1.687881 18.697341 -8.769370 2.034472 52.799360 0.024813 0.086940 8.038367 0.023722 0.087625 5.115304 -7.909566 2.036346 49.789382 0.115203 0.349046 9.250170 0.110254 0.352691 5.886112 -7.600428 -0.633794 42.729661 -0.650194 -1.592977 11.312953 -0.622650 -1.618271 7.190169 0.650587 0.261976 -6.338945 -5.769008 5.802939 -78.208343 -10.067872 6.306952 -2.946101 -3.773796 14.342723 5.676063 -101.989230 66.962286 -69.701235 0.035899 0.005013 -26.858177 0.035377 -0.007261 -29.118109 5.540382 4.681859 -66.300983 -3.758005 2.062799 -40.394610 -4.861932 1.841121 -29.851895 5.685716 2.883292 -67.672948 -2.317372 -0.131334 -66.088798 -2.652921 0.096352 -40.556161 5.175049 3.461091 -62.038936 -2.971039 -0.555668 -72.431319 -3.455605 -0.051944 -45.065130 4.965078 2.625297 -42.689133 -2.915491 -0.820907 -76.834714 -3.450360 -0.116892 -46.240703 0.000000 -0.000000 0.000000 0.000000 -0.000000 0.000000 0.000000 -0.000000 0.000000 0.000000 -0.000000 0.000000 0.000000 -0.000000 0.000000 0.000000 -0.000000 0.000000 0.000000 -0.000000 0.000000 0.000000 -0.000000 0.000000
0.000000 125.000000 0.000000 -165.464285 5.493843 0.226512 0.466208 -4.188691 -2.078651 0.282420 -7.689300 -0.926847 0.280121 -1.868938 -0.898166 0.138774 4.434163 -0.674508 1.625331 17.988308 4.559318 1.479229 -2.597647 7.852140 -2.634441 -2.858518 8.196372 -10.049057 -35.376286 58.669553 99.350433 -45.260869 36.318369 -20.419170 -50.184262 36.017470 58.815279 60.636326 43.102647 -0.004518 0.000838 15.552201 -0.004394 -0.001272 7.739601 -10.566732 4.646786 43.423802 1.087719 1.690662 22.256936 1.394435 1.701806 19.029821 -8.676924 1.938712 52.224945 0.040322 0.138250 8.217965 0.038569 0.139361 5.229566 -7.888159 2.022900 49.695418 0.119408 0.361245 9.263489 0.114286 0.365043 5.894574 -7.578792 -0.736615 42.592535 -0.685116 -1.641214 11.553820 -0.656159 -1.668429 7.342654 0.632706 0.246350 -6.346295 -5.885953 5.699787 -78.171745 -10.105227 6.294070 -2.984061 -3.779531 14.349157 5.698360 -101.963580 66.968587 -69.614927 0.036053 0.005074 -26.925425 0.035593 -0.007261 -29.238750 5.541126 4.684572 -66.302883 -3.758993 2.061945 -40.402033 -4.864761 1.840417 -29.867299 5.691436 2.880086 -67.691501 -2.306026 -0.131554 -66.101959 -2.640289 0.095295 -40.562661 5.174908 3.462975 -62.040943 -2.971154 -0.556087 -72.432370 -3.456275 -0.052435 -45.069346 4.965250 2.624183 -42.670059 -2.914717 -0.821530 -76.850599 -3.449655 -0.117646 -46.256801 -0.000000 0.000000 -0.000000 -0.000000 0.000000 -0.000000 -0.000000 0.000000 -0.000000 -0.000000 0.000000 -0.000000 -0.000000 0.000000 -0.000000 -0.000000 0.000000 -0.000000 -0.000000 0.000000 -0.000000 -0.000000 0.000000 -0.000000
0.000000 125.000000 0.000000 -165.463865 5.458441 0.223625 0.490848 -4.184710 -2.089255 0.293745 -7.687645 -0.931375 0.291352 -1.867288 -0.901543 0.146933 4.435379 -0.677015 1.529485 18.188768 4.534481 1.321213 -2.221555 7.833985 -2.511680 -2.747878 8.132782 -9.363154 -35.300895 58.958422 99.301457 -44.370451 35.148809 -19.762501 -50.624445 34.993658 58.943098 60.700890 43.186710 -0.004722 0.000935 15.653153 -0.004654 -0.001364 7.910130 -10.598182 4.632181 43.121135 1.095729 1.680565 22.518951 1.409174 1.692328 19.324616 -8.642752 1.863764 51.988508 0.040283 0.136795 8.290333 0.038537 0.137938 5.275600 -7.820712 1.745959 49.676805 0.087438 0.263901 9.285380 0.083701 0.266692 5.908691 -7.572587 -0.766301 42.590833 -0.693507 -1.654353 11.599510 -0.664193 -1.682002 7.371556 0.620863 0.231254 -6.354601 -6.002250 5.588401 -78.143989 -10.154671 6.297516 -3.014113 -3.794573 14.343995 5.726303 -101.973270 66.995590 -69.500266 0.036137 0.005085 -27.077218 0.035733 -0.007298 -29.506392 5.545227 4.676940 -66.295826 -3.760108 2.056467 -40.449295 -4.872264 1.834414 -29.933226 5.690579 2.885762 -67.730558 -2.302555 -0.132490 -66.110716 -2.637423 0.094013 -40.582618 5.171066 3.462507 -62.052012 -2.981274 -0.559384 -72.451030 -3.469542 -0.054633 -45.086423 4.965224 2.624192 -42.659765 -2.914026 -0.822433 -76.870302 -3.449160 -0.119085 -46.278154 -0.000000 -0.000000 0.000000 -0.000000 -0.000000 0.000000 -0.000000 -0.000000 0.000000 -0.000000 -0.000000 0.000000 -0.000000 -0.000000 0.000000 -0.000000 -0.000000 0.000000 -0.000000 -0.000000 0.000000 -0.000000 -0.000000 0.000000
0.000000 125.000000 0.000000 -165.444798 5.423095 0.220878 0.514248 -4.184270 -2.102321 0.304595 -7.687559 -0.937015 0.302110 -1.867208 -0.906082 0.154644 4.435417 -0.680394 1.431513 18.418451 4.494768 1.165790 -1.791519 7.788358 -2.398861 -2.640129 8.068587 -8.742517 -35.134533 59.153852 98.698632 -43.467419 34.459513 -19.189927 -50.898394 33.998574 58.886835 60.677179 43.272950 -0.004148 0.000787 15.355821 -0.004045 -0.001176 7.367952 -10.572120 4.583966 42.878002 1.108807 1.690015 22.584104 1.423823 1.702011 19.339849 -8.589204 1.964473 51.911839 0.070294 0.235845 8.388625 0.067236 0.237849 5.338076 -7.784468 1.812931 49.724192 0.108844 0.329949 9.245786 0.104164 0.333410 5.883365 -7.565436 -0.832073 42.682519 -0.719105 -1.685431 11.791973 -0.688777 -1.714575 7.493421 0.614221 0.218728 -6.363288 -6.106975 5.477840 -78.125808 -10.213183 6.308938 -3.042652 -3.812773 14.330767 5.751005 -102.043896 67.002452 -69.558312 0.035764 0.005078 -27.072432 0.035411 -0.007188 -29.497627 5.543986 4.676880 -66.289731 -3.761690 2.057481 -40.443700 -4.873501 1.835941 -29.929701 5.718037 2.851809 -67.765256 -2.257266 -0.130260 -66.123688 -2.584055 0.093554 -40.573378 5.176194 3.461208 -62.028984 -2.971673 -0.557019 -72.432824 -3.458275 -0.053719 -45.083663 4.964501 2.625233 -42.669507 -2.916577 -0.822281 -76.852965 -3.451533 -0.118120 -46.277870 0.000000 0.000000 -0.000000 0.000000 0.000000 -0.000000 0.000000 0.000000 -0.000000 0.000000 0.000000 -0.000000 0.000000 0.000000 -0.000000 0.000000 0.000000 -0.000000 0.000000 0.000000 -0.000000 0.000000 0.000000 -0.000000
